<svg width="100" height="60" viewBox="0 0 100 60" fill="none" xmlns="http://www.w3.org/2000/svg">
<path d="M79.0515 55.5225C77.845 55.7523 76.9833 55.7236 76.4662 55.4364C76.0066 55.1491 75.4608 54.7182 74.8288 54.1437C73.9096 53.6841 73.0765 53.0808 72.3296 52.3339C71.6402 51.5296 71.1231 50.6965 70.7784 49.8348C70.4337 48.973 70.2901 48.2836 70.3475 47.7665C70.5199 45.7557 70.9795 43.5725 71.7264 41.2169C72.5307 38.8614 73.5361 36.592 74.7426 34.4088C75.9491 32.2257 77.2992 30.301 78.793 28.6349C80.3442 26.9113 81.9241 25.7048 83.5328 25.0154C84.6818 24.5558 85.8596 24.3834 87.0661 24.4983C88.3301 24.6132 89.1918 25.159 89.6515 26.1357C90.5132 27.8018 90.3122 28.8647 89.0482 29.3243C88.8759 29.3243 88.6748 29.4105 88.445 29.5829C88.2152 29.6978 88.1003 29.8701 88.1003 30.0999C88.3301 30.2148 88.962 30.2436 89.9962 30.1861C91.0303 30.0712 92.0645 29.8988 93.0986 29.669C94.1902 29.3818 94.9083 29.0945 95.253 28.8073C95.5978 28.6349 95.8563 28.5487 96.0287 28.5487C96.201 28.5487 96.6319 28.6062 97.3213 28.7211C98.298 29.0083 98.7864 29.3531 98.7864 29.7552C98.7864 29.985 98.8725 30.301 99.0449 30.7032C99.2172 31.1053 99.4183 31.3064 99.6481 31.3064C100.05 31.3639 100.108 31.7373 99.8205 32.4267C99.5332 33.0587 98.8151 33.7769 97.666 34.5812C96.5744 35.2706 95.885 35.7302 95.5978 35.9601C95.368 36.1324 95.3392 36.5346 95.5116 37.1666C95.9712 38.2581 95.9425 39.5508 95.4254 41.0446C94.9658 42.5383 94.1615 44.0895 93.0124 45.6982C91.8634 47.3069 90.4845 48.8293 88.8759 50.2657C87.3246 51.6445 85.6873 52.8223 83.9637 53.799C82.2401 54.7757 80.6027 55.3502 79.0515 55.5225ZM78.793 49.4039C79.0228 49.4039 79.425 49.289 79.9995 49.0592C80.574 48.7719 81.0336 48.5421 81.3783 48.3697C81.6081 48.1399 81.8954 47.8814 82.2401 47.5941C82.6423 47.2494 82.9583 47.0483 83.1881 46.9909C83.4179 46.9909 83.5903 46.9047 83.7052 46.7323C83.8775 46.5025 84.1648 46.0716 84.5669 45.4397C85.0266 44.7502 85.7734 43.7448 86.8076 42.4234C87.9566 41.1595 88.761 40.0966 89.2206 39.2348C89.6802 38.373 89.7664 37.4825 89.4791 36.5633C89.4217 36.3335 89.2493 36.1899 88.962 36.1324C88.7322 36.075 88.4162 35.9313 88.0141 35.7015C87.4396 35.7015 86.9799 35.7302 86.6352 35.7877C86.348 35.8452 85.8883 35.6153 85.2564 35.0983L83.8775 33.3747L82.4125 34.8397C81.4932 35.759 80.6315 36.9942 79.8271 38.5454C79.0228 40.0392 78.3621 41.5904 77.845 43.199C77.3854 44.7502 77.0981 46.0716 76.9832 47.1632C76.9258 48.025 77.0694 48.5995 77.4141 48.8868C77.7589 49.1741 78.2185 49.3464 78.793 49.4039Z" fill="#1d3557"/>
<path d="M60.1025 57.6768C59.0109 57.964 58.063 57.7055 57.2586 56.9011C56.4543 56.0394 55.9085 54.7754 55.6213 53.1093C55.3914 51.4432 55.5063 49.5473 55.966 47.4215C56.2532 46.7321 56.483 46.0714 56.6554 45.4394C56.8278 44.75 56.9139 44.2042 56.9139 43.802C57.0288 43.2275 57.2586 42.3945 57.6034 41.3029C57.9481 40.1538 58.3215 38.976 58.7237 37.7696C59.1258 36.5631 59.4993 35.5002 59.844 34.581C60.2462 33.6043 60.5047 33.001 60.6196 32.7712C60.8494 32.7712 61.0505 32.5701 61.2228 32.168C61.3952 31.7658 61.4814 31.3636 61.4814 30.9615C61.4814 30.5018 61.5676 29.9848 61.7399 29.4103C61.9697 28.8357 62.1995 28.4336 62.4293 28.2038C62.4293 27.9165 62.4868 27.6005 62.6017 27.2558C62.7741 26.8536 62.8602 26.5376 62.8602 26.3078C62.8602 26.078 62.9177 25.8482 63.0326 25.6184C63.2049 25.3886 63.2911 25.1588 63.2911 24.929C63.6933 24.1821 64.2104 23.0043 64.8423 21.3957C65.5318 19.7296 66.2499 17.8911 66.9968 15.8803C67.8011 13.8694 68.548 11.8873 69.2374 9.93395C69.9269 7.98058 70.4727 6.34319 70.8748 5.02179C71.3344 3.64294 71.5642 2.80988 71.5642 2.52262C71.5642 2.063 71.7079 1.66084 71.9951 1.31612C72.3398 0.971409 72.742 0.79905 73.2016 0.79905C73.374 0.626696 73.69 0.511794 74.1496 0.454343C74.6667 0.339436 75.0401 0.281982 75.2699 0.281982C75.2699 0.281982 75.3848 0.396887 75.6146 0.626696C75.8444 0.856506 76.1891 1.20122 76.6488 1.66084C77.1084 2.063 77.4818 2.52262 77.7691 3.03969C78.1138 3.55676 78.2862 4.16001 78.2862 4.84944C78.2862 5.59631 78.2 6.31446 78.0276 7.00389C77.8553 7.63587 77.5105 8.52637 76.9935 9.67542C76.4764 10.8245 75.6721 12.548 74.5805 14.8461C74.1209 15.9952 73.6325 17.0868 73.1154 18.1209C72.5984 19.0976 72.3398 19.7008 72.3398 19.9306C72.3398 20.1604 72.2249 20.5052 71.9951 20.9648C71.8228 21.4244 71.6217 21.9989 71.3919 22.6883C71.1621 23.148 70.8461 23.8374 70.4439 24.7566C70.0418 25.6184 69.6109 26.5664 69.1512 27.6005C68.7491 28.5772 68.4044 29.439 68.1171 30.1859C67.8298 30.8753 67.6862 31.2775 67.6862 31.3924C67.6862 31.6222 67.6575 31.852 67.6 32.0818C67.6 32.3116 67.4851 32.5414 67.2553 32.7712C67.0255 32.7712 66.8819 32.9436 66.8244 33.2883C66.8244 33.5755 66.8244 33.7192 66.8244 33.7192C66.8244 34.2937 66.3648 35.8162 65.4456 38.2866C64.5263 41.4465 63.6646 44.3478 62.8602 46.9906C62.1134 49.6334 61.7399 51.7592 61.7399 53.3678C61.7399 54.7467 61.5676 55.7521 61.2228 56.3841C60.9356 57.016 60.5621 57.4469 60.1025 57.6768Z" fill="#1d3557"/>
<path d="M41.9678 55.1777C41.5082 54.7181 41.1635 54.0861 40.9336 53.2818C40.7613 52.42 40.7038 51.5869 40.7613 50.7826C40.8187 49.9208 40.9624 49.2601 41.1922 48.8005C41.1922 48.3409 41.2496 47.9962 41.3645 47.7664C41.5369 47.4791 41.5943 47.2206 41.5369 46.9908C41.4794 46.7609 41.5369 46.3588 41.7093 45.7843C41.8816 45.2097 42.054 44.6639 42.2263 44.1469C42.6285 43.2276 43.0594 42.0786 43.519 40.6997C44.0361 39.2634 44.5244 37.8271 44.984 36.3908C45.5011 34.9545 45.9033 33.7193 46.1905 32.6852C46.5352 31.5936 46.7363 30.9329 46.7938 30.7031C46.7938 30.0136 47.2534 29.6402 48.1726 29.5827C48.8621 29.3529 49.5802 29.554 50.3271 30.186C51.1314 30.7605 51.8208 31.5074 52.3954 32.4266C52.855 32.8862 53.0273 33.5182 52.9124 34.3225C52.7975 35.1269 52.4241 36.2185 51.7921 37.5973C51.5623 38.0569 51.275 38.8038 50.9303 39.838C50.6431 40.8146 50.442 41.6477 50.3271 42.3371C50.0973 42.7967 49.81 43.4574 49.4653 44.3192C49.178 45.1236 48.9195 45.8992 48.6897 46.646C48.5748 46.9333 48.4599 47.4216 48.345 48.1111C48.2301 48.8005 48.0864 49.5187 47.9141 50.2655C47.7417 51.0124 47.5119 51.6157 47.2247 52.0753C46.7076 54.4308 45.932 55.8097 44.8978 56.2118C43.9212 56.614 42.9445 56.2693 41.9678 55.1777ZM50.9303 20.4478C50.4133 20.0457 50.0111 19.5573 49.7238 18.9828C49.4366 18.3508 49.2642 17.7763 49.2068 17.2592C49.2068 16.7422 49.2642 16.4549 49.3791 16.3975C49.8962 15.9378 50.4133 15.2197 50.9303 14.243C51.4474 13.2089 51.8496 12.2896 52.1368 11.4853C52.1943 11.3129 52.3092 11.0831 52.4815 10.7959C52.7114 10.5086 52.9412 10.3362 53.171 10.2788C53.8604 9.81918 54.7222 9.81918 55.7563 10.2788C56.7905 10.7384 57.5948 11.4278 58.1693 12.3471C58.6864 13.4387 58.83 14.5015 58.6002 15.5357C58.4278 16.5124 57.8246 17.6327 56.7905 18.8966C55.9287 20.0457 54.9233 20.7638 53.7742 21.0511C52.6826 21.2809 51.7347 21.0798 50.9303 20.4478Z" fill="#1d3557"/>
<path d="M37.7531 30.7764C37.4658 31.0636 36.7764 31.3509 35.6848 31.6381C34.5932 31.9254 32.7835 32.2127 30.2556 32.4999C29.5087 32.5574 28.4171 32.6148 26.9808 32.6723C25.6019 32.7297 24.1082 32.7872 22.4995 32.8446C20.8908 32.9021 19.4258 32.9308 18.1044 32.9308C16.783 32.8734 15.8638 32.7872 15.3467 32.6723C15.3467 32.6723 15.2031 32.8159 14.9158 33.1032C14.686 33.3904 14.5711 33.7639 14.5711 34.2235C14.1689 34.9129 13.6806 35.9471 13.1061 37.3259C12.5315 38.7048 11.8996 40.2272 11.2101 41.8934C10.5207 43.502 9.86001 45.1394 9.22804 46.8055C8.65352 48.4142 8.16518 49.8218 7.76301 51.0283C7.4183 52.2348 7.24594 53.0678 7.24594 53.5274C6.72887 54.9063 6.41288 56.084 6.29798 57.0607C6.18307 58.0374 5.98199 58.6119 5.69473 58.7843C5.57983 59.4163 5.09148 59.7035 4.2297 59.6461C3.42537 59.6461 2.79339 59.3876 2.33378 58.8705C1.24218 58.296 0.524031 57.6065 0.179317 56.8022C-0.107944 55.9404 -0.0504913 54.8776 0.351674 53.6136C0.524031 52.8667 0.811291 51.7751 1.21346 50.3388C1.67307 48.8451 2.16142 47.2077 2.67849 45.4267C3.25301 43.6456 3.82753 41.9221 4.40206 40.256C5.03403 38.5324 5.63728 37.1248 6.2118 36.0332C6.84377 34.9416 7.24594 33.965 7.4183 33.1032C7.59065 32.1839 7.5555 31.4525 7.84276 30.7056C7.7853 30.0736 8.15689 29.6651 8.21434 29.4928C8.27179 29.263 8.39498 28.823 8.79715 28.3634C9.08441 28.0761 9.42912 27.6452 9.83129 27.0707C10.2909 26.4387 10.808 25.4907 11.3825 24.2268C11.5549 23.6523 11.8134 22.8767 12.1581 21.9C12.5603 20.8658 12.9337 19.8317 13.2784 18.7976C13.6231 17.706 13.9391 16.7867 14.2264 16.0399C14.5136 15.293 14.6573 14.8908 14.6573 14.8334C14.7722 14.6036 14.9445 14.1727 15.1743 13.5407C15.4042 12.8513 15.5765 12.3055 15.6914 11.9033C15.9212 11.099 16.0936 10.4383 16.2085 9.9212C16.3808 9.40413 16.3521 9.14559 16.1223 9.14559C15.6627 9.2605 14.7435 9.34668 13.3646 9.40413C12.6752 9.51903 12.1581 9.60521 11.8134 9.66266C11.5261 9.66266 11.2676 9.69139 11.0378 9.74884C10.4633 9.80629 9.94619 9.74884 9.48658 9.57648C9.02696 9.40413 8.79715 9.05942 8.79715 8.54235C8.91206 7.62311 9.22804 6.76132 9.74511 5.95699C10.3196 5.09521 11.0378 4.63559 11.8996 4.57814C12.3017 4.46324 12.7326 4.37706 13.1922 4.31961C13.7093 4.2047 14.3987 4.03235 15.2605 3.80254C16.3521 3.57273 17.2714 3.45782 18.0182 3.45782C18.7651 3.45782 19.3109 3.51528 19.6556 3.63018C19.9429 3.45782 20.1727 3.28547 20.345 3.11311C20.5749 2.8833 20.7185 2.65349 20.7759 2.42368C20.9483 1.61935 21.3217 1.0161 21.8963 0.613939C22.5282 0.211772 23.1602 0.0106886 23.7922 0.0106886C24.4816 -0.0467629 25.0561 0.125596 25.5157 0.527763C25.9754 0.872475 26.1764 1.447 26.119 2.25133C26.1764 2.42368 26.2914 2.56732 26.4637 2.68222C26.6935 2.79712 27.2393 2.79712 28.1011 2.68222C28.9629 2.50986 30.3705 2.2226 32.3238 1.82044C33.358 1.70553 34.6507 1.59063 36.2019 1.47572C37.8105 1.36082 39.0745 1.447 39.9937 1.73426C40.9704 1.5619 41.8322 1.50445 42.5791 1.5619C43.3834 1.5619 43.9292 1.44699 44.2164 1.21718C45.4229 1.44699 46.2847 1.61935 46.8018 1.73426C47.3763 1.79171 47.8359 1.96407 48.1806 2.25133C48.4104 2.48114 48.4966 2.71095 48.4392 2.94075C48.3817 3.11311 48.353 3.19929 48.353 3.19929C48.1232 3.08438 48.0945 3.08438 48.2668 3.19929C48.4966 3.31419 48.7264 3.45782 48.9562 3.63018C49.3584 3.80254 49.5882 4.11852 49.6457 4.57814C49.7031 5.03776 49.7031 5.49737 49.6457 5.95699C49.5882 6.35916 49.5308 6.64642 49.4733 6.81878C49.4159 7.33585 49.1286 7.65183 48.6115 7.76674C48.0945 7.82419 46.8018 7.82419 44.7335 7.76674C42.2631 7.42202 39.9362 7.30712 37.7531 7.42203C35.5699 7.47948 32.8984 7.73801 29.7385 8.19763C28.4745 8.25508 27.3829 8.42744 26.4637 8.7147C25.6019 8.94451 25.171 9.05941 25.171 9.05941C24.9412 9.05941 24.5391 9.46158 23.9645 10.2659C23.39 11.0128 22.8442 12.1331 22.3271 13.6269C22.0973 14.029 21.6952 14.8908 21.1206 16.2122C20.5461 17.5336 19.9429 18.9699 19.3109 20.5211C18.7364 22.0149 18.2193 23.365 17.7597 24.5715C17.3001 25.7206 17.0128 26.3525 16.8979 26.4674C17.7022 26.6972 18.9662 26.8121 20.6898 26.8121C22.4133 26.8121 24.338 26.7547 26.4637 26.6398C28.5894 26.4674 30.5715 26.2951 32.41 26.1227C33.2718 25.9504 34.1623 25.8067 35.0815 25.6918C36.0008 25.5769 36.6327 25.5482 36.9775 25.6056C37.552 25.7206 37.9829 26.1514 38.2701 26.8983C38.5574 27.5878 38.6723 28.3059 38.6148 29.0528C38.6148 29.7997 38.3276 30.3742 37.7531 30.7764Z" fill="#1d3557"/>
</svg>
