<svg width="291" height="284" viewBox="0 0 291 284" fill="none" xmlns="http://www.w3.org/2000/svg">
<g clip-path="url(#clip0_3_50)">
<path d="M273.272 62.5337L56.0417 22.3487C52.0613 21.6112 47.9626 22.4221 44.6469 24.6031C41.3312 26.7841 39.07 30.1566 38.3606 33.9789L11.1904 180.855C10.4829 184.679 11.3864 188.64 13.7022 191.865C16.0179 195.09 19.5562 197.316 23.5386 198.053L240.769 238.238C244.752 238.973 248.852 238.16 252.167 235.977C255.483 233.794 257.744 230.419 258.453 226.595L285.623 79.7193C286.327 75.8963 285.421 71.9387 283.105 68.7162C280.789 65.4937 277.253 63.2699 273.272 62.5337ZM253.546 77.5258L176.935 128.137C167.335 134.476 157.22 136.894 147.661 135.125L147.596 135.113C137.99 133.336 129.397 127.381 122.697 117.924L69.9792 43.5682L253.546 77.5258ZM54.1452 53.5821L104.78 124.995L32.6251 169.914L54.1452 53.5821ZM46.0514 183.576L116.986 139.416C124.886 146.559 134.14 151.231 144.243 153.121L144.372 153.145C154.587 155.035 164.989 153.96 175.04 150.027L225.594 216.789L46.0514 183.576ZM242.479 208.114L191.562 140.903L263.737 93.1979L242.479 208.114Z" fill="#CCEDFF"/>
</g>
<defs>
<clipPath id="clip0_3_50">
<rect width="251.294" height="241.33" fill="white" transform="translate(43.8982) rotate(10.4805)"/>
</clipPath>
</defs>
</svg>
